<?xml version="1.0" encoding="utf-8"?>
<!-- Generator: Adobe Illustrator 18.1.1, SVG Export Plug-In . SVG Version: 6.00 Build 0)  -->
<!DOCTYPE svg PUBLIC "-//W3C//DTD SVG 1.1//EN" "http://www.w3.org/Graphics/SVG/1.1/DTD/svg11.dtd">
<svg version="1.1" id="Calque_1" xmlns="http://www.w3.org/2000/svg" xmlns:xlink="http://www.w3.org/1999/xlink" x="0px" y="0px"
	 viewBox="0 0 48 48" enable-background="new 0 0 48 48" xml:space="preserve">
<g>
	<path fill="#FFFFFF" d="M24.8,1.8l-2.6,2.6c-0.4-0.3-0.8-0.5-1.3-0.6c-0.4-0.1-0.7-0.2-1.1-0.2c-0.8,0-1.5,0.3-2,0.8
		c-1.2,1.2-2.9,2.9-2.9,2.9S13.1,8.9,12,10h8c0-0.8,0.8-1.6,1.6-2.4c1.1-1.1,2-2,2.8-2.7C25.2,4,26,3.1,27.3,1.9
		C28.5,0.7,30.1,0,31.8,0h-12c0.7,0,1.4,0.1,2.1,0.3C23,0.6,23.9,1.1,24.8,1.8z"/>
	<path fill="#FFFFFF" d="M38.4,44.1c-1.3,0-1.9,0.4-2.9,1.3c-1.4,1.1-3.2,2.6-6.7,2.6c-3.5,0-5.3-1.5-6.7-2.6
		c-1.1-0.8-1.6-1.3-2.9-1.3c-1.3,0-1.9,0.4-2.9,1.3c-1.4,1.1-3.2,2.6-6.7,2.6c-3.5,0-5.3-1.5-6.7-2.6c-1-0.8-1.6-1.3-2.9-1.3V48h48
		v-0.1c-3.5,0-5.3-1.5-6.7-2.6C40.3,44.5,39.7,44.1,38.4,44.1z"/>
	<rect x="12" y="20" fill="#FFFFFF" width="8" height="2"/>
	<path fill="#FFFFFF" d="M38.4,34.1c-1.3,0-1.9,0.4-2.9,1.3c-1.4,1.1-3.2,2.6-6.7,2.6c-3.5,0-5.3-1.5-6.7-2.6
		c-1.1-0.8-1.6-1.3-2.9-1.3c-1.3,0-1.9,0.4-2.9,1.3c-1.4,1.1-3.2,2.6-6.7,2.6c-3.5,0-5.3-1.5-6.7-2.6c-1-0.8-1.6-1.3-2.9-1.3v4
		c3.5,0,5.3,1.5,6.7,2.6c1,0.8,1.6,1.3,2.9,1.3c1.3,0,1.9-0.4,2.9-1.3c1.4-1.1,3.2-2.6,6.7-2.6c3.5,0,5.3,1.5,6.7,2.6
		c1.1,0.8,1.6,1.3,2.9,1.3c1.4,0,1.9-0.4,2.9-1.3c1.4-1.1,3.2-2.6,6.7-2.6c3.5,0,5.3,1.5,6.7,2.6c1.1,0.8,1.6,1.3,2.9,1.3v-4
		c-3.5,0-5.3-1.5-6.7-2.6C40.3,34.5,39.7,34.1,38.4,34.1z"/>
	<rect x="12" y="14" fill="#FFFFFF" width="8" height="2"/>
	<path fill="#FFFFFF" d="M31.8,0c0.7,0,1.4,0.1,2.1,0.3c2.7,0.8,4.6,3.4,5.4,5.7h-3.7c-0.4-0.8-1.4-1.8-2.7-2.2
		c-0.4-0.1-0.7-0.2-1.1-0.2c-0.8,0-1.5,0.3-2,0.8c-1.2,1.2-2.1,2.1-2.9,2.9C26.1,8.1,25.1,8.9,24,10v15.3c-1.4-0.4-2.6-1.3-4.8-1.3
		S12,26,12,26h0V27c0,0.6-1.3,0.9-2.4,0.9c-0.7,0-1.6-0.1-1.6-0.3V10c0-0.5,0.8-1.6,1.6-2.4c1.1-1.1,2-2,2.8-2.7
		C13.2,4,14,3.1,15.3,1.9C16.5,0.7,18.1,0,19.8,0H0v28.1c3.5,0,5.3,1.5,6.7,2.6c1,0.8,1.6,1.3,2.9,1.3c1.3,0,1.9-0.4,2.9-1.3
		c1.4-1.1,3.2-2.6,6.7-2.6c3.5,0,5.3,1.5,6.7,2.6c1.1,0.8,1.6,1.3,2.9,1.3c1.4,0,1.9-0.4,2.9-1.3c1.4-1.1,3.2-2.6,6.7-2.6
		c3.5,0,5.3,1.5,6.7,2.6c1.1,0.8,1.6,1.3,2.9,1.3V0H31.8z"/>
</g>
</svg>
