<?xml version="1.0" encoding="utf-8"?>
<!-- Generator: Adobe Illustrator 18.1.1, SVG Export Plug-In . SVG Version: 6.00 Build 0)  -->
<!DOCTYPE svg PUBLIC "-//W3C//DTD SVG 1.1//EN" "http://www.w3.org/Graphics/SVG/1.1/DTD/svg11.dtd">
<svg version="1.1" id="Calque_1" xmlns="http://www.w3.org/2000/svg" xmlns:xlink="http://www.w3.org/1999/xlink" x="0px" y="0px"
	 viewBox="0 0 48 48" enable-background="new 0 0 48 48" xml:space="preserve">
<g>
	<path fill="#FFFFFF" d="M11.6,21.5c-3,1.5-5.3,3.3-6.5,4.4c1.7,1.6,5.3,4.5,9.9,6.5c-2.2-2.3-3.6-5.4-3.6-8.8
		C11.4,23,11.5,22.2,11.6,21.5z"/>
	<path fill="#FFFFFF" d="M21.5,27.7l1.2-1.2c-0.9-0.4-1.6-1.3-1.7-2.4l-1.3,1.3C20,26.3,20.6,27.2,21.5,27.7z"/>
	<path fill="#FFFFFF" d="M32.5,19.8c-1.6-0.5-3.2-1-4.9-1.2c1.6,1.1,2.7,3,2.7,5.2c0,3.5-2.8,6.3-6.3,6.3c-3.5,0-6.3-2.8-6.3-6.3
		c0-2.1,1.1-4,2.7-5.2c-1.7,0.3-3.4,0.7-5,1.3c-0.5,1.2-0.8,2.5-0.8,3.9c0,5.2,4.2,9.4,9.4,9.4c5.2,0,9.4-4.2,9.4-9.4
		C33.4,22.3,33,21,32.5,19.8z"/>
	<path fill="#FFFFFF" d="M36.6,23.7c0,3.5-1.4,6.7-3.7,8.9c5-2,9-5.1,10.7-6.7c-1.3-1.2-3.9-3-7.2-4.6
		C36.5,22.1,36.6,22.9,36.6,23.7z"/>
	<path fill="#FFFFFF" d="M0,0v48h48V0H0z M24,37.7C11.8,37.7,0.7,26,0.7,26S8.6,12,24,12c15.4,0,23.3,14,23.3,14S36.2,37.7,24,37.7z
		"/>
</g>
</svg>
