<?xml version="1.0" encoding="utf-8"?>
<!-- Generator: Adobe Illustrator 18.1.1, SVG Export Plug-In . SVG Version: 6.00 Build 0)  -->
<!DOCTYPE svg PUBLIC "-//W3C//DTD SVG 1.1//EN" "http://www.w3.org/Graphics/SVG/1.1/DTD/svg11.dtd">
<svg version="1.1" id="Calque_1" xmlns="http://www.w3.org/2000/svg" xmlns:xlink="http://www.w3.org/1999/xlink" x="0px" y="0px"
	 viewBox="0 0 580.8 93.8" enable-background="new 0 0 580.8 93.8" xml:space="preserve">
<g>
	<path fill="#706F6F" d="M76.1,52.4C75.4,40,74.6,25.1,74.8,14h-0.4c-3,10.4-6.6,21.6-11,33.7L47.9,90.8h-8.6L25.2,48.5
		C21,36,17.5,24.6,15.1,14h-0.3c-0.3,11.1-0.9,25.9-1.7,39.2l-2.3,38.1H0L6.1,2.6h14.4l14.9,42.9c3.6,10.9,6.6,20.7,8.8,29.9h0.4
		c2.2-9,5.3-18.7,9.2-29.9L69.4,2.6h14.4l5.5,88.8h-11L76.1,52.4z"/>
	<path fill="#706F6F" d="M118,2.6v88.8h-11.3V2.6H118z"/>
	<path fill="#706F6F" d="M136.1,77.4c5.1,3.2,12.5,5.8,20.2,5.8c11.6,0,18.3-6.2,18.3-15.1c0-8.3-4.7-13-16.5-17.6
		c-14.3-5.1-23.1-12.6-23.1-25.2c0-13.8,11.3-24.1,28.3-24.1c9,0,15.4,2.1,19.3,4.3l-3.1,9.4c-2.9-1.6-8.7-4.2-16.6-4.2
		c-11.9,0-16.5,7.2-16.5,13.3c0,8.3,5.3,12.4,17.4,17.1c14.8,5.8,22.3,13,22.3,26.1c0,13.7-10,25.7-30.6,25.7
		c-8.4,0-17.7-2.6-22.3-5.8L136.1,77.4z"/>
	<path fill="#706F6F" d="M200.1,77.4c5.1,3.2,12.5,5.8,20.2,5.8c11.6,0,18.3-6.2,18.3-15.1c0-8.3-4.7-13-16.5-17.6
		c-14.3-5.1-23.1-12.6-23.1-25.2c0-13.8,11.3-24.1,28.3-24.1c9,0,15.4,2.1,19.3,4.3l-3.1,9.4c-2.9-1.6-8.7-4.2-16.6-4.2
		c-11.9,0-16.5,7.2-16.5,13.3c0,8.3,5.3,12.4,17.4,17.1c14.8,5.8,22.3,13,22.3,26.1c0,13.7-10,25.7-30.6,25.7
		c-8.4,0-17.7-2.6-22.3-5.8L200.1,77.4z"/>
	<path fill="#C8D400" d="M278,9.7c0.1,4-2.7,7.1-7.3,7.1c-4,0-6.9-3.2-6.9-7.1c0-4.1,3-7.2,7.1-7.2C275.3,2.4,278,5.6,278,9.7z
		 M265.3,91.3V27.6h11.4v63.7H265.3z"/>
	<path fill="#706F6F" d="M369.7,52.4c-0.6-12.4-1.4-27.3-1.3-38.3h-0.4c-3,10.4-6.6,21.6-11,33.7l-15.4,43.1H333l-14.1-42.3
		c-4.2-12.5-7.7-24-10.1-34.5h-0.3c-0.3,11.1-0.9,25.9-1.7,39.2l-2.3,38.1h-10.8l6.1-88.8h14.4l14.9,42.9
		c3.6,10.9,6.6,20.7,8.8,29.9h0.4c2.2-9,5.3-18.7,9.2-29.9l15.6-42.9h14.4l5.5,88.8h-11L369.7,52.4z"/>
	<path fill="#706F6F" d="M474.1,52.4c-0.6-12.4-1.4-27.3-1.3-38.3h-0.4c-3,10.4-6.6,21.6-11,33.7l-15.4,43.1h-8.6l-14.1-42.3
		c-4.2-12.5-7.7-24-10.1-34.5h-0.3c-0.3,11.1-0.9,25.9-1.7,39.2l-2.3,38.1H398l6.1-88.8h14.4l14.9,42.9c3.6,10.9,6.6,20.7,8.8,29.9
		h0.4c2.2-9,5.3-18.7,9.2-29.9l15.6-42.9h14.4l5.5,88.8h-11L474.1,52.4z"/>
	<path fill="#706F6F" d="M579.5,46c0,30.6-18.3,46.8-40.6,46.8c-23.1,0-39.3-18.2-39.3-45c0-28.2,17.3-46.6,40.6-46.6
		C564,1.1,579.5,19.7,579.5,46z M511.6,47.5c0,19,10.1,36,27.9,36c17.9,0,28-16.7,28-36.9c0-17.6-9.1-36.1-27.9-36.1
		C520.9,10.5,511.6,28,511.6,47.5z"/>
</g>
</svg>
