<?xml version="1.0" encoding="utf-8"?>
<!-- Generator: Adobe Illustrator 18.1.1, SVG Export Plug-In . SVG Version: 6.00 Build 0)  -->
<!DOCTYPE svg PUBLIC "-//W3C//DTD SVG 1.1//EN" "http://www.w3.org/Graphics/SVG/1.1/DTD/svg11.dtd">
<svg version="1.1" id="Capa_1" xmlns="http://www.w3.org/2000/svg" xmlns:xlink="http://www.w3.org/1999/xlink" x="0px" y="0px"
	 viewBox="273.6 396.9 48 48" enable-background="new 273.6 396.9 48 48" xml:space="preserve">
<path fill="#FFFFFF" d="M296.6,396.9c2.4,0,4.3,1.9,4.3,4.3c0,2.4-1.9,4.3-4.3,4.3c-2.4,0-4.3-1.9-4.3-4.3
	C292.4,398.9,294.3,396.9,296.6,396.9h-23v43.6l36-5.6l1.8-13.7l-6.8,1.6l-1-4.1l9.2-2.2l3.5-3.9l3.1,2.8l-3.5,3.9l-2,14.7l3.2-0.6
	l-0.3,11.3h4.8v-48H296.6z M298.8,415.5l-4.7-1.1l-1,4l6.5,1.6l2.7,13.6l-4.1,0.8l-2.2-11l-3.7-0.9l0,0l-2.3,9l-11.9-3.1l1.1-4.1
	l7.6,1.8l1.2-4.9l0.1,0l2.4-9.9h-3.9l-5.4,4.7l-2.7-3.2l6.6-5.7h10.8l-0.7,3l3.1,0.7l5.5-3l2,3.7L298.8,415.5z"/>
</svg>
